# AST/ASF file generated using VICON BodyLanguage
# -----------------------------------------------
:version 1.10
:name VICON
:units
  mass 1.0
  length 0.45
  angle deg
:documentation
   .ast/.asf automatically generated from VICON data using
   VICON BodyBuilder and BodyLanguage model FoxedUp or BRILLIANT.MOD
:root
   order TX TY TZ RX RY RZ
   axis XYZ
   position 0 0 0  
   orientation 0 0 0 
:bonedata
  begin
     id 1 
     name lhipjoint
     direction 0.627457 -0.725269 0.283342 
     length 2.53237 
     axis 0 0 0  XYZ
  end
  begin
     id 2 
     name lfemur
     direction 0.34202 -0.939693 0  
     length 7.32496  
     axis 0 0 20  XYZ
    dof rx ry rz
    limits (-160.0 20.0)
           (-70.0 70.0)
           (-60.0 70.0)
  end
  begin
     id 3 
     name ltibia
     direction 0.34202 -0.939693 0   
     length 7.69674   
     axis 0 0 20   XYZ
    dof rx
    limits (-10.0 170.0)
  end
  begin
     id 4 
     name lfoot
     direction 0.127289 -0.349722 0.928166   
     length 1.8612   
     axis -90 7.62852e-016 20   XYZ
    dof rx rz
    limits (-45.0 90.0)
           (-70.0 20.0)
  end
  begin
     id 5 
     name ltoes
     direction 1.53561e-011 -4.21864e-011 1   
     length 0.925608   
     axis -90 7.62852e-016 20   XYZ
    dof rx
    limits (-90.0 20.0)
  end
  begin
     id 6 
     name rhipjoint
     direction -0.609094 -0.738725 0.288599   
     length 2.48624  
     axis 0 0 0  XYZ 
  end
  begin
     id 7 
     name rfemur
     direction -0.34202 -0.939693 0   
     length 7.44259   
     axis 0 0 -20   XYZ
    dof rx ry rz
    limits (-160.0 20.0)
           (-70.0 70.0)
           (-70.0 60.0)
  end
  begin
     id 8 
     name rtibia
     direction -0.34202 -0.939693 0   
     length 7.7781   
     axis 0 0 -20   XYZ
    dof rx
    limits (-10.0 170.0)
 end
 begin
     id 9 
     name rfoot
     direction -0.107015 -0.294021 0.949789   
     length 2.14741  
     axis -90 -7.62852e-016 -20   XYZ
    dof rx rz
    limits (-45.0 90.0)
           (-20.0 70.0)
  end
  begin
     id 10 
     name rtoes
     direction -1.53497e-011 -4.21924e-011 1   
     length 1.0706   
     axis -90 -7.62852e-016 -20   XYZ
    dof rx
    limits (-90.0 20.0)
  end
  begin
     id 11 
     name lowerback
     direction -0.0142066 0.998112 -0.0597545   
     length 1.86627   
     axis 0 0 0   XYZ
    dof rx ry rz
    limits (-20.0 45.0)
           (-30.0 30.0)
           (-30.0 30.0)
  end
  begin
     id 12 
     name upperback
     direction 0.00547294 0.999744 0.0219437   
     length 1.86272   
     axis 0 0 0   XYZ
    dof rx ry rz
    limits (-20.0 45.0)
           (-30.0 30.0)
           (-30.0 30.0)
  end
  begin
     id 13 
     name thorax
     direction 0.0116162 0.998704 0.0495538   
     length 1.8703   
     axis 0 0 0   XYZ
    dof rx ry rz
    limits (-20.0 45.0)
           (-30.0 30.0)
           (-30.0 30.0)
  end
  begin
     id 14 
     name lowerneck
     direction -0.0106574 0.998739 0.0490586   
     length 1.8074   
     axis 0 0 0   XYZ
    dof rx ry rz
    limits (-20.0 45.0)
           (-30.0 30.0)
           (-30.0 30.0)
  end
  begin
     id 15 
     name upperneck
     direction 0.030527 0.976587 -0.212944   
     length 1.80681   
     axis 0 0 0   XYZ
    dof rx ry rz
    limits (-20.0 45.0)
           (-30.0 30.0)
           (-30.0 30.0)
  end
  begin
     id 16
     name head
     direction 0.00869225 0.997035 -0.0764531  
     length 1.8313  
     axis 0 0 0   XYZ
    dof rx ry rz
    limits (-20.0 45.0)
           (-30.0 30.0)
           (-30.0 30.0)
  end
  begin
     id 17 
     name lclavicle
     direction 0.915958 0.399447 0.0382386  
     length 3.78965  
     axis 0 0 0   XYZ
    dof ry rz
    limits (-20.0 10.0)
           (0.0 20.0)
  end
  begin
     id 18 
     name lhumerus
     direction 1 -4.48967e-011 3.19303e-027   
     length 4.78095   
     axis -180 -30 -90   XYZ
    dof rx ry rz
    limits (-60.0 90.0)
           (-90.0 90.0)
           (-90.0 90.0)
  end
  begin
     id 19
     name lradius
     direction 1 -4.48967e-011 -3.77974e-027   
     length 3.58615   
     axis -180 -30 -90   XYZ
    dof rx
    limits (-10.0 170.0)
  end
  begin
     id 20
     name lwrist
     direction 1 -4.48927e-011 1.2807e-027   
     length 1.79307   
     axis 1.91374e-015 90 90   XYZ
    dof ry
    limits (-180.0 0.0)
 end
  begin
     id 21 
     name lhand
     direction 1 -4.49036e-011 2.5614e-027   
     length 0.659812   
     axis -1.63439e-015 90 90   XYZ
    dof rx rz
    limits (-90.0 90.0)
           (-45.0 45.0)
  end
  begin
     id 22 
     name lfingers
     direction 1 -4.49052e-011 5.1228e-027   
     length 0.531957   
     axis -3.26879e-015 90 90   XYZ
    dof rx
    limits (0.0 90.0)
  end
  begin
     id 23
     name lthumb
     direction 0.707107 -6.35012e-011 0.707107   
     length 0.763787   
     axis -90 45 2.85299e-015   XYZ
    dof rx rz
    limits (-45.0 45.0)
           (-45.0 45.0)
  end
  begin
     id 24 
     name rclavicle
     direction -0.895351 0.435135 0.0948887   
     length 3.70497  
     axis 0 0 0   XYZ 
    dof ry rz
    limits (-10.0 20.0)
           (-20.0 0.0)
  end
  begin
     id 25 
     name rhumerus
     direction -1 -4.48971e-011 2.38946e-027  
     length 4.48913   
     axis -180 30 90   XYZ
    dof rx ry rz
    limits (-90.0 60.0)
           (-90.0 90.0)
           (-90.0 90.0)
  end
  begin
     id 26 
     name rradius
     direction -1 -4.4895e-011 4.38668e-027   
     length 3.7051   
     axis -180 30 90   XYZ
    dof rx
    limits (-10.0 170.0)
  end
  begin
     id 27 
     name rwrist
     direction -1 -4.49007e-011 1.2807e-027   
     length 1.85255   
     axis 1.91374e-015 -90 -90   XYZ
    dof ry
    limits (-180.0 0.0)
  end
  begin
     id 28
     name rhand
     direction -1 -4.48851e-011 2.5614e-027   
     length 0.449136   
     axis -1.63439e-015 -90 -90   XYZ
    dof rx rz
    limits (-90.0 90.0)
           (-45.0 45.0)
  end
  begin
     id 29
     name rfingers
     direction -1 -4.49128e-011 5.1228e-027   
     length 0.362105   
     axis -3.26879e-015 -90 -90   XYZ
    dof rx
    limits (0.0 90.0)
  end
  begin
     id 30
     name rthumb
     direction -0.707107 -6.34851e-011 0.707107   
     length 0.519912   
     axis -90 -45 -2.85299e-015   XYZ
    dof rx rz
    limits (-45.0 45.0)
           (-45.0 45.0)
  end
:hierarchy
  begin
    root lhipjoint rhipjoint lowerback
    lhipjoint lfemur
    lfemur ltibia
    ltibia lfoot
    lfoot ltoes
    rhipjoint rfemur
    rfemur rtibia
    rtibia rfoot
    rfoot rtoes
    lowerback upperback
    upperback thorax
    thorax lowerneck lclavicle rclavicle
    lowerneck upperneck
    upperneck head
    lclavicle lhumerus
    lhumerus lradius
    lradius lwrist
    lwrist lhand lthumb
    lhand lfingers
    rclavicle rhumerus
    rhumerus rradius
    rradius rwrist
    rwrist rhand rthumb
    rhand rfingers
  end

#!OML:ASF I:\Actors\actors\Patient Classification 2\Patient 1\Session 1\actor1.ASF
:FULLY-SPECIFIED
:DEGREES
21
root -0.633979 18.7464 4.6014 3.77217 -1.94894 -2.1077
lowerback -1.89613 1.39396 -1.3557
upperback -2.90729 1.87134 0.321568
thorax -1.97282 0.967328 1.09035
lowerneck -8.92998 -3.81683 -2.03658
upperneck 24.5943 -6.00163 3.99766
head 9.38514 -2.5745 1.07555
rclavicle 8.12532e-015 1.03368e-014
rhumerus -50.8767 -0.670293 -87.4496
rradius 43.4855
rwrist 14.2985
rhand -9.47833 -40.2757
rfingers 7.12502
rthumb 16.486 -69.5953
lclavicle 8.12532e-015 1.03368e-014
lhumerus -42.5184 3.90839 87.4344
lradius 36.9324
lwrist -8.868
lhand -11.3752 -31.5077
lfingers 7.12502
lthumb 14.6591 -2.04589
rfemur 3.66355 -10.6635 15.1091
rtibia -7.15625e-015
rfoot -7.67002 -0.985339
rtoes -4.41183
lfemur -7.22012 -7.08776 -12.5082
ltibia 21.8181
lfoot -22.4674 11.5474
ltoes -54.719
22
root -0.635013 18.7462 4.60903 3.77854 -1.89408 -2.13577
lowerback -1.93879 1.40002 -1.31975
upperback -2.92941 1.87975 0.325087
thorax -1.97082 0.970979 1.07466
lowerneck -8.97229 -3.82421 -2.13246
upperneck 24.5829 -6.02679 4.13232
head 9.39773 -2.5801 1.1343
rclavicle 2.57923e-014 1.98785e-015
rhumerus -50.9115 -0.712752 -87.4518
rradius 43.5205
rwrist 14.3191
rhand -9.16005 -40.6452
rfingers 7.12502
rthumb 16.7924 -69.939
lclavicle 2.57923e-014 1.98785e-015
lhumerus -42.5532 3.83568 87.4601
lradius 36.9689
lwrist -8.76906
lhand -11.4655 -31.3948
lfingers 7.12502
lthumb 14.572 -1.9267
rfemur 3.69249 -10.7168 15.1384
rtibia -5.56597e-015
rfoot -7.68716 -0.972906
rtoes -4.28302
lfemur -7.2168 -7.11526 -12.4702
ltibia 21.8271
lfoot -22.4537 11.5069
ltoes -54.7177
23
root -0.636307 18.7464 4.61707 3.80493 -1.81335 -2.17591
lowerback -2.02615 1.38736 -1.2798
upperback -2.94941 1.86379 0.335661
thorax -1.94099 0.962261 1.06521
lowerneck -8.93212 -3.82662 -2.16382
upperneck 24.5093 -6.03262 4.18039
head 9.367 -2.58241 1.15632
rclavicle -6.08778e-015 -5.1684e-015
rhumerus -50.9639 -0.691863 -87.4869
rradius 43.6244
rwrist 14.366
rhand -9.86798 -40.517
rfingers 7.12502
rthumb 16.1108 -69.8673
lclavicle -6.08778e-015 -5.1684e-015
lhumerus -42.5733 3.80749 87.4616
lradius 36.9761
lwrist -8.71931
lhand -11.4975 -31.3339
lfingers 7.12502
lthumb 14.5412 -1.86359
rfemur 3.70455 -10.7968 15.1869
rtibia -2.38542e-015
rfoot -7.70275 -0.976859
rtoes -4.35226
lfemur -7.24104 -7.11317 -12.4103
ltibia 21.8273
lfoot -22.4087 11.4538
ltoes -54.7743
24
root -0.638308 18.7467 4.62436 3.85142 -1.73082 -2.21081
lowerback -2.09221 1.37652 -1.26491
upperback -2.99409 1.85011 0.350786
thorax -1.94957 0.955644 1.07343
lowerneck -8.92367 -3.84132 -2.14666
upperneck 24.5154 -6.04559 4.13509
head 9.36596 -2.59169 1.13661
rclavicle -4.17448e-015 3.97569e-015
rhumerus -50.9947 -0.693702 -87.4648
rradius 43.644
rwrist 14.5347
rhand -11.4659 -39.7294
rfingers 7.12502
rthumb 14.5716 -69.1975
lclavicle -4.17448e-015 3.97569e-015
lhumerus -42.6548 3.94007 87.3987
lradius 37.0428
lwrist -8.82984
lhand -11.4515 -31.3412
lfingers 7.12502
lthumb 14.5855 -1.87407
rfemur 3.6975 -10.8804 15.2384
rtibia 6.36111e-015
rfoot -7.72234 -0.973653
rtoes -4.69126
lfemur -7.28571 -7.13243 -12.3505
ltibia 21.8253
lfoot -22.4113 11.4009
ltoes -54.7213
25
root -0.639951 18.7475 4.63016 3.9005 -1.703 -2.1805
lowerback -2.10851 1.37727 -1.33523
upperback -3.05629 1.85176 0.360089
thorax -2.00721 0.958826 1.12173
lowerneck -8.96145 -3.84341 -2.14898
upperneck 24.5793 -6.04234 4.09983
head 9.39438 -2.59239 1.12443
rclavicle -2.96686e-014 2.38542e-015
rhumerus -51.0102 -0.663225 -87.432
rradius 43.6031
rwrist 14.6895
rhand -12.2205 -38.8858
rfingers 7.12502
rthumb 13.8445 -68.4051
lclavicle -2.96686e-014 2.38542e-015
lhumerus -42.8103 4.16853 87.3022
lradius 37.2125
lwrist -9.0395
lhand -11.3123 -31.3451
lfingers 7.12502
lthumb 14.7197 -1.88765
rfemur 3.67248 -10.9144 15.2183
rtibia 8.74653e-015
rfoot -7.74358 -0.966731
rtoes -5.16482
lfemur -7.32652 -7.17474 -12.3758
ltibia 21.8261
lfoot -22.4436 11.4254
ltoes -54.6933
26
root -0.640831 18.748 4.63598 3.93053 -1.72402 -2.16652
lowerback -2.13592 1.38582 -1.36242
upperback -3.09613 1.8635 0.355911
thorax -2.03401 0.965658 1.13276
lowerneck -8.96797 -3.81963 -2.13998
upperneck 24.5985 -6.01402 4.11038
head 9.40139 -2.57679 1.12955
rclavicle 1.81515e-014 3.97569e-015
rhumerus -50.9946 -0.578787 -87.476
rradius 43.5835
rwrist 14.6635
rhand -12.2953 -38.1799
rfingers 7.12502
rthumb 13.7724 -67.704
lclavicle 1.81515e-014 3.97569e-015
lhumerus -42.8819 4.26916 87.2323
lradius 37.2742
lwrist -9.10795
lhand -11.2138 -31.3663
lfingers 7.12502
lthumb 14.8145 -1.91587
rfemur 3.65523 -10.8971 15.2075
rtibia -1.11319e-014
rfoot -7.76707 -0.944891
rtoes -5.34375
lfemur -7.33279 -7.18654 -12.3927
ltibia 21.8254
lfoot -22.4771 11.4584
ltoes -54.742
27
root -0.641794 18.7474 4.64233 3.9412 -1.75082 -2.20991
lowerback -2.17039 1.40347 -1.32505
upperback -3.11798 1.88723 0.363387
thorax -2.0369 0.976978 1.12014
lowerneck -8.95664 -3.79565 -2.10849
upperneck 24.5989 -5.9889 4.12167
head 9.39786 -2.56112 1.13117
rclavicle 1.29086e-014 7.95139e-016
rhumerus -50.9745 -0.536251 -87.5015
rradius 43.6166
rwrist 14.6034
rhand -12.298 -37.9404
rfingers 7.12502
rthumb 13.7698 -67.4647
lclavicle 1.29086e-014 7.95139e-016
lhumerus -42.8946 4.26942 87.2147
lradius 37.246
lwrist -9.08092
lhand -11.1953 -31.4273
lfingers 7.12502
lthumb 14.8323 -1.97814
rfemur 3.66107 -10.8683 15.2546
rtibia 2.38542e-015
rfoot -7.79197 -0.908933
rtoes -5.08691
lfemur -7.31161 -7.19139 -12.3448
ltibia 21.8244
lfoot -22.5129 11.4691
ltoes -54.721
